<svg width="30" height="27" viewBox="0 0 30 27" fill="none" xmlns="http://www.w3.org/2000/svg" aria-label="Till startsidan">
    <path fill-rule="evenodd" clip-rule="evenodd" d="M3.22449 15.3644V3.63203C3.22449 3.54653 3.40511 3.3064 3.54687 3.3064H29.9235V0.0408936C19.4294 0.0408936 3.54687 0.0408936 3.54687 0.0408936C2.22247 0.0408936 0 0.507732 0 3.63203V15.3644C0 17.5793 1.3585 18.9557 3.54687 18.9557H19.9275V15.6909H3.54687C3.39665 15.6909 3.22449 15.5167 3.22449 15.3644Z" fill="#CA402B"></path>
    <path fill-rule="evenodd" clip-rule="evenodd" d="M26.7392 11.4358V23.168C26.7392 23.2536 26.5585 23.4938 26.4169 23.4938H0.0402832V26.7591C10.5344 26.7591 26.4169 26.7591 26.4169 26.7591C27.7413 26.7591 29.9639 26.2922 29.9639 23.168V11.4358C29.9639 9.22087 28.6053 7.84448 26.4169 7.84448H10.0363V11.1093H26.4169C26.5669 11.1093 26.7392 11.2835 26.7392 11.4358Z" fill="#CA402B"></path>
</svg>