<svg width="62" height="62" viewBox="0 0 62 62" fill="none" xmlns="http://www.w3.org/2000/svg">
<path d="M29.4797 0.308819L2.35791 11.935C0.6628 12.6616 -0.28162 14.4782 0.0937262 16.2705C0.469073 18.0629 2.04311 19.3708 3.88352 19.3708V20.3397C3.88352 21.9504 5.17907 23.2462 6.78942 23.2462H55.2212C56.8316 23.2462 58.1271 21.9504 58.1271 20.3397V19.3708C59.9676 19.3708 61.5537 18.075 61.9169 16.2705C62.2802 14.4661 61.3358 12.6495 59.6528 11.935L32.5309 0.308819C31.5623 -0.10294 30.4484 -0.10294 29.4797 0.308819ZM15.5072 27.1216H7.75806V50.8946C7.68541 50.9309 7.61277 50.9794 7.54012 51.0278L1.7283 54.9032C0.311669 55.8478 -0.330052 57.616 0.166374 59.2509C0.6628 60.8858 2.17629 62 3.88352 62H58.1271C59.8344 62 61.3358 60.8858 61.8322 59.2509C62.3286 57.616 61.699 55.8478 60.2703 54.9032L54.4584 51.0278C54.3858 50.9794 54.3131 50.9431 54.2405 50.8946L54.2526 27.1216H46.5035V50.3739H41.6603V27.1216H33.9112V50.3739H28.0994V27.1216H20.3503V50.3739H15.5072V27.1216ZM31.0053 7.7447C32.0329 7.7447 33.0184 8.153 33.745 8.87977C34.4717 9.60655 34.8799 10.5923 34.8799 11.6201C34.8799 12.6479 34.4717 13.6336 33.745 14.3604C33.0184 15.0872 32.0329 15.4955 31.0053 15.4955C29.9777 15.4955 28.9922 15.0872 28.2656 14.3604C27.539 13.6336 27.1308 12.6479 27.1308 11.6201C27.1308 10.5923 27.539 9.60655 28.2656 8.87977C28.9922 8.153 29.9777 7.7447 31.0053 7.7447Z" fill="#700000"/>
</svg>