<svg xmlns="http://www.w3.org/2000/svg" xmlns:xlink="http://www.w3.org/1999/xlink" width="829" height="504" version="1.1">
    <rect width="829" height="504" fill="url(#paint0_radial_7_5)"/>
	
	<path d="M73.4797 32.3088L46.3579 43.935C44.6628 44.6616 43.7184 46.4782 44.0937 48.2705C44.4691 50.0629 46.0431 51.3708 47.8835 51.3708V52.3397C47.8835 53.9504 49.1791 55.2462 50.7894 55.2462H99.2212C100.832 55.2462 102.127 53.9504 102.127 52.3397V51.3708C103.968 51.3708 105.554 50.075 105.917 48.2705C106.28 46.4661 105.336 44.6495 103.653 43.935L76.5309 32.3088C75.5623 31.8971 74.4484 31.8971 73.4797 32.3088ZM59.5072 59.1216H51.7581V82.8946C51.6854 82.9309 51.6128 82.9794 51.5401 83.0278L45.7283 86.9032C44.3117 87.8478 43.6699 89.616 44.1664 91.2509C44.6628 92.8858 46.1763 94 47.8835 94H102.127C103.834 94 105.336 92.8858 105.832 91.2509C106.329 89.616 105.699 87.8478 104.27 86.9032L98.4584 83.0278C98.3858 82.9794 98.3131 82.9431 98.2405 82.8946L98.2526 59.1216H90.5035V82.3739H85.6603V59.1216H77.9112V82.3739H72.0994V59.1216H64.3503V82.3739H59.5072V59.1216ZM75.0053 39.7447C76.0329 39.7447 77.0184 40.153 77.745 40.8798C78.4717 41.6065 78.8799 42.5923 78.8799 43.6201C78.8799 44.6479 78.4717 45.6336 77.745 46.3604C77.0184 47.0872 76.0329 47.4955 75.0053 47.4955C73.9777 47.4955 72.9922 47.0872 72.2656 46.3604C71.539 45.6336 71.1308 44.6479 71.1308 43.6201C71.1308 42.5923 71.539 41.6065 72.2656 40.8798C72.9922 40.153 73.9777 39.7447 75.0053 39.7447Z" fill="#700000"/>
	<path d="M154.32 48.16C157.307 48.16 159.947 48.8267 162.24 50.16C164.56 51.4667 166.347 53.2933 167.6 55.64C168.88 57.9867 169.52 60.64 169.52 63.6C169.52 66.64 168.56 69.4533 166.64 72.04C164.747 74.6 162.387 76.64 159.56 78.16C156.733 79.6533 154.04 80.4 151.48 80.4C150.253 80.4 149.04 80.3333 147.84 80.2C145.84 80.0667 144.307 80 143.24 80H136.92V77.76L140.68 74.8V52.52L136.24 51.16L137.56 48.56H143.2C145.653 48.56 148.053 48.48 150.4 48.32C152.213 48.2133 153.52 48.16 154.32 48.16ZM152.64 76.68C154.32 76.68 155.84 76.2 157.2 75.24C158.587 74.28 159.667 72.9467 160.44 71.24C161.24 69.5333 161.64 67.6133 161.64 65.48C161.64 62.92 161.253 60.6133 160.48 58.56C159.733 56.48 158.573 54.8267 157 53.6C155.453 52.3467 153.533 51.72 151.24 51.72C150.04 51.72 148.933 52.04 147.92 52.68V75.92C149.28 76.4267 150.84 76.68 152.6 76.68H152.64ZM186.157 80H173.517V77.76L177.077 74.76V65.48L173.517 63.12V60.88L181.357 57.68H183.877V76.2L187.477 77.4L186.157 80ZM180.437 45.64C181.584 45.64 182.517 46.0133 183.237 46.76C183.984 47.48 184.357 48.3867 184.357 49.48C184.357 50.2533 184.09 50.9733 183.557 51.64C183.024 52.3067 182.357 52.84 181.557 53.24C180.757 53.64 179.984 53.84 179.237 53.84C178.117 53.84 177.184 53.48 176.437 52.76C175.717 52.0133 175.357 51.0933 175.357 50C175.357 49.2267 175.624 48.5067 176.157 47.84C176.69 47.1733 177.344 46.64 178.117 46.24C178.917 45.84 179.69 45.64 180.437 45.64ZM203.165 80.4C202.072 80.4 201.085 80.12 200.205 79.56V85.96L206.285 87.56L205.005 90.16H189.845V87.92L193.405 84.92V65.68L189.845 63.44V61.2L198.165 57.68L199.725 62.36L204.725 58.36C205.578 58.1467 206.552 58.04 207.645 58.04C209.272 58.04 210.738 58.5067 212.045 59.44C213.378 60.3467 214.405 61.6 215.125 63.2C215.872 64.8 216.245 66.5733 216.245 68.52C216.245 70.6267 215.565 72.6 214.205 74.44C212.845 76.2533 211.138 77.7067 209.085 78.8C207.058 79.8667 205.098 80.4 203.205 80.4H203.165ZM205.085 63.6C204.205 63.6 203.365 63.7067 202.565 63.92C201.792 64.1333 200.992 64.52 200.165 65.08V71.4C200.165 72.6533 200.618 73.7067 201.525 74.56C202.458 75.3867 203.778 75.8 205.485 75.8C206.632 75.8 207.498 75.3467 208.085 74.44C208.698 73.5333 209.005 72.2 209.005 70.44C209.005 68.44 208.672 66.8 208.005 65.52C207.338 64.24 206.378 63.6 205.125 63.6H205.085ZM231.841 80H219.201V77.76L222.761 74.76V52.88L219.201 50.52V48.28L227.041 45.08H229.561V76.2L233.161 77.4L231.841 80ZM249.149 58.04C251.122 58.04 252.882 58.5067 254.429 59.44C255.976 60.3467 257.176 61.6 258.029 63.2C258.909 64.8 259.349 66.5733 259.349 68.52C259.349 70.6267 258.669 72.6 257.309 74.44C255.949 76.2533 254.242 77.7067 252.189 78.8C250.162 79.8667 248.202 80.4 246.309 80.4C244.362 80.4 242.602 79.9467 241.029 79.04C239.482 78.1067 238.269 76.84 237.389 75.24C236.536 73.64 236.109 71.8667 236.109 69.92C236.109 67.8133 236.789 65.8533 238.149 64.04C239.509 62.2 241.202 60.7467 243.229 59.68C245.282 58.5867 247.256 58.04 249.149 58.04ZM246.829 62.68C245.709 62.68 244.856 63.1333 244.269 64.04C243.709 64.92 243.429 66.24 243.429 68C243.429 70.24 243.882 72.1067 244.789 73.6C245.696 75.0667 246.976 75.8 248.629 75.8C249.722 75.8 250.549 75.3467 251.109 74.44C251.696 73.5067 251.989 72.16 251.989 70.4C251.989 68.16 251.536 66.32 250.629 64.88C249.722 63.4133 248.456 62.68 246.829 62.68ZM301.881 80H292.761V66.72C292.761 65.6267 292.587 64.8667 292.241 64.44C291.921 63.9867 291.321 63.76 290.441 63.76C289.134 63.76 287.854 64.2133 286.601 65.12V76.28L289.961 77.4L288.681 80H279.801V66.72C279.801 65.6267 279.627 64.8667 279.281 64.44C278.961 63.9867 278.361 63.76 277.481 63.76C276.174 63.76 274.907 64.2133 273.681 65.12V76.28L277.001 77.4L275.721 80H263.321V77.76L266.881 74.76V65.68L263.321 63.44V61.2L271.641 57.68L273.201 62.32L278.001 58.36C278.641 58.1467 279.374 58.04 280.201 58.04C281.774 58.04 283.094 58.4133 284.161 59.16C285.254 59.88 285.987 60.88 286.361 62.16L291.001 58.36C291.641 58.1467 292.374 58.04 293.201 58.04C295.147 58.04 296.694 58.6 297.841 59.72C299.014 60.8133 299.601 62.3067 299.601 64.2V76.2L303.161 77.4L301.881 80ZM328.511 80H319.391V76.52L314.871 80.08C314.338 80.2933 313.671 80.4 312.871 80.4C310.311 80.4 308.458 79.7733 307.311 78.52C306.191 77.2667 305.631 75.76 305.631 74C305.631 72.96 305.951 71.9467 306.591 70.96C307.231 69.9467 308.151 69.0133 309.351 68.16H319.391V67.48C319.391 66.0133 318.991 64.9333 318.191 64.24C317.391 63.5467 316.324 63.2 314.991 63.2C313.124 63.2 310.684 63.9333 307.671 65.4L306.471 63.12L312.031 58.64C313.391 58.24 314.978 58.04 316.791 58.04C319.778 58.04 322.084 58.72 323.711 60.08C325.364 61.44 326.191 63.4133 326.191 66V76L329.791 77.4L328.511 80ZM314.911 75.04C316.271 75.04 317.764 74.48 319.391 73.36V70.8H312.951C312.738 71.12 312.578 71.4267 312.471 71.72C312.391 71.9867 312.351 72.2933 312.351 72.64C312.351 73.3067 312.578 73.8667 313.031 74.32C313.511 74.7733 314.138 75 314.911 75V75.04Z" fill="#700000"/>
	<path opacity="0.3" d="M407.137 103.89L275.771 159.996C267.56 163.502 262.986 172.269 264.804 180.918C266.622 189.568 274.246 195.88 283.16 195.88V200.555C283.16 208.328 289.435 214.582 297.235 214.582H531.817C539.617 214.582 545.892 208.328 545.892 200.555V195.88C554.806 195.88 562.488 189.627 564.248 180.918C566.007 172.21 561.433 163.444 553.281 159.996L421.915 103.89C417.224 101.903 411.828 101.903 407.137 103.89ZM339.46 233.284H301.927V348.008C301.575 348.183 301.223 348.417 300.871 348.65L272.721 367.352C265.86 371.911 262.751 380.444 265.156 388.333C267.56 396.223 274.891 401.6 283.16 401.6H545.892C554.161 401.6 561.433 396.223 563.837 388.333C566.242 380.444 563.192 371.911 556.272 367.352L528.122 348.65C527.77 348.417 527.418 348.241 527.067 348.008L527.125 233.284H489.592V345.495H466.134V233.284H428.601V345.495H400.451V233.284H362.918V345.495H339.46V233.284ZM414.526 139.774C419.503 139.774 424.276 141.745 427.796 145.252C431.315 148.759 433.292 153.516 433.292 158.476C433.292 163.436 431.315 168.193 427.796 171.7C424.276 175.208 419.503 177.178 414.526 177.178C409.549 177.178 404.775 175.208 401.256 171.7C397.737 168.193 395.759 163.436 395.759 158.476C395.759 153.516 397.737 148.759 401.256 145.252C404.775 141.745 409.549 139.774 414.526 139.774Z" fill="#CDAB56"/>
	
	<defs>
		<radialGradient id="paint0_radial_7_5" cx="0" cy="0" r="1" gradientUnits="userSpaceOnUse" gradientTransform="rotate(31.298) scale(970.184 837.521)">
			<stop stop-color="#E4C988"/>
			<stop offset="1" stop-color="#F1EAD7"/>
		</radialGradient>
	</defs>
</svg>
