<svg xmlns="http://www.w3.org/2000/svg" xmlns:xlink="http://www.w3.org/1999/xlink" width="829" height="504" version="1.1">
    <rect width="829" height="504" fill="url(#paint0_radial_7_28)"/>

    <path d="M73.4797 32.3088L46.3579 43.935C44.6628 44.6616 43.7184 46.4782 44.0937 48.2705C44.4691 50.0629 46.0431 51.3708 47.8835 51.3708V52.3397C47.8835 53.9504 49.1791 55.2462 50.7894 55.2462H99.2212C100.832 55.2462 102.127 53.9504 102.127 52.3397V51.3708C103.968 51.3708 105.554 50.075 105.917 48.2705C106.28 46.4661 105.336 44.6495 103.653 43.935L76.5309 32.3088C75.5623 31.8971 74.4484 31.8971 73.4797 32.3088ZM59.5072 59.1216H51.7581V82.8946C51.6854 82.9309 51.6128 82.9794 51.5401 83.0278L45.7283 86.9032C44.3117 87.8478 43.6699 89.616 44.1664 91.2509C44.6628 92.8858 46.1763 94 47.8835 94H102.127C103.834 94 105.336 92.8858 105.832 91.2509C106.329 89.616 105.699 87.8478 104.27 86.9032L98.4584 83.0278C98.3858 82.9794 98.3131 82.9431 98.2405 82.8946L98.2526 59.1216H90.5035V82.3739H85.6603V59.1216H77.9112V82.3739H72.0994V59.1216H64.3503V82.3739H59.5072V59.1216ZM75.0053 39.7447C76.0329 39.7447 77.0184 40.153 77.745 40.8798C78.4717 41.6065 78.8799 42.5923 78.8799 43.6201C78.8799 44.6479 78.4717 45.6336 77.745 46.3604C77.0184 47.0872 76.0329 47.4955 75.0053 47.4955C73.9777 47.4955 72.9922 47.0872 72.2656 46.3604C71.539 45.6336 71.1308 44.6479 71.1308 43.6201C71.1308 42.5923 71.539 41.6065 72.2656 40.8798C72.9922 40.153 73.9777 39.7447 75.0053 39.7447Z" fill="#000F70"/>
    <path d="M178 80.16H163.84V77.92L167.6 74.96V55.76L157.68 80.12H154.2L144.12 55.56V75.72L148.56 77.48L147.28 80.08H136.92V77.84L140.68 74.88V53.08L136.24 51.2L137.56 48.6H148.8L157.92 70.84L166.96 48.6H178.64V50.84L174.84 53.8V76.24L179.28 77.56L178 80.16ZM194.907 80H182.267V77.76L185.827 74.76V65.48L182.267 63.12V60.88L190.107 57.68H192.627V76.2L196.227 77.4L194.907 80ZM189.187 45.64C190.334 45.64 191.267 46.0133 191.987 46.76C192.734 47.48 193.107 48.3867 193.107 49.48C193.107 50.2533 192.84 50.9733 192.307 51.64C191.774 52.3067 191.107 52.84 190.307 53.24C189.507 53.64 188.734 53.84 187.987 53.84C186.867 53.84 185.934 53.48 185.187 52.76C184.467 52.0133 184.107 51.0933 184.107 50C184.107 49.2267 184.374 48.5067 184.907 47.84C185.44 47.1733 186.094 46.64 186.867 46.24C187.667 45.84 188.44 45.64 189.187 45.64ZM211.435 58.04C212.688 58.04 214.142 58.2 215.795 58.52C217.448 58.8133 218.648 59.1467 219.395 59.52V66.96H216.875C215.862 65.6 214.715 64.5467 213.435 63.8C212.155 63.0533 210.822 62.68 209.435 62.68C208.448 62.68 207.688 63.1467 207.155 64.08C206.648 64.9867 206.395 66.2933 206.395 68C206.395 70.16 206.848 71.9467 207.755 73.36C208.688 74.7733 210.008 75.48 211.715 75.48C213.448 75.48 215.942 74.64 219.195 72.96L220.395 75.24L214.635 79.8C213.115 80.2 211.368 80.4 209.395 80.4C207.448 80.4 205.688 79.9467 204.115 79.04C202.568 78.1067 201.355 76.84 200.475 75.24C199.622 73.64 199.195 71.8667 199.195 69.92C199.195 67.8133 199.822 65.8533 201.075 64.04C202.355 62.2 203.955 60.7467 205.875 59.68C207.795 58.5867 209.648 58.04 211.435 58.04ZM237.343 63.72C236.383 63.72 235.423 64.1467 234.463 65V75.8L240.543 77.4L239.263 80H224.103V77.76L227.663 74.76V65.68L224.103 63.44V61.2L232.423 57.68L233.943 62.12L237.583 58.36C238.143 58.1467 238.796 58.04 239.543 58.04C240.929 58.04 242.116 58.36 243.103 59C244.116 59.64 244.823 60.52 245.223 61.64L241.383 66.44H238.863C238.836 65.48 238.703 64.8 238.463 64.4C238.223 63.9733 237.849 63.76 237.343 63.76V63.72ZM260.008 58.04C261.982 58.04 263.742 58.5067 265.288 59.44C266.835 60.3467 268.035 61.6 268.888 63.2C269.768 64.8 270.208 66.5733 270.208 68.52C270.208 70.6267 269.528 72.6 268.168 74.44C266.808 76.2533 265.102 77.7067 263.048 78.8C261.022 79.8667 259.062 80.4 257.168 80.4C255.222 80.4 253.462 79.9467 251.888 79.04C250.342 78.1067 249.128 76.84 248.248 75.24C247.395 73.64 246.968 71.8667 246.968 69.92C246.968 67.8133 247.648 65.8533 249.008 64.04C250.368 62.2 252.062 60.7467 254.088 59.68C256.142 58.5867 258.115 58.04 260.008 58.04ZM257.688 62.68C256.568 62.68 255.715 63.1333 255.128 64.04C254.568 64.92 254.288 66.24 254.288 68C254.288 70.24 254.742 72.1067 255.648 73.6C256.555 75.0667 257.835 75.8 259.488 75.8C260.582 75.8 261.408 75.3467 261.968 74.44C262.555 73.5067 262.848 72.16 262.848 70.4C262.848 68.16 262.395 66.32 261.488 64.88C260.582 63.4133 259.315 62.68 257.688 62.68ZM274.94 67.44L276.54 65.4H290.58V67.6L288.98 69.64H274.94V67.44ZM313.528 47.76C315.074 47.76 316.874 47.96 318.928 48.36C321.008 48.76 322.528 49.1867 323.488 49.64V58.16H319.688C317.634 54.2933 314.808 52.36 311.208 52.36C309.741 52.36 308.394 52.8267 307.168 53.76C305.941 54.6933 304.968 55.9733 304.248 57.6C303.554 59.2267 303.208 61.0533 303.208 63.08C303.208 65.3733 303.554 67.48 304.248 69.4C304.968 71.2933 306.048 72.8133 307.488 73.96C308.928 75.08 310.714 75.64 312.848 75.64C315.274 75.64 318.728 74.3067 323.208 71.64L324.808 74.2L317.448 79.92C316.274 80.2667 315.141 80.4933 314.048 80.6C312.981 80.7333 311.834 80.8 310.608 80.8C307.621 80.8 304.968 80.12 302.648 78.76C300.328 77.4 298.528 75.5333 297.248 73.16C295.968 70.76 295.328 68.04 295.328 65C295.328 61.88 296.288 59 298.208 56.36C300.128 53.6933 302.514 51.6 305.368 50.08C308.221 48.5333 310.941 47.76 313.528 47.76ZM341.444 63.72C340.484 63.72 339.524 64.1467 338.564 65V75.8L344.644 77.4L343.364 80H328.204V77.76L331.764 74.76V65.68L328.204 63.44V61.2L336.524 57.68L338.044 62.12L341.684 58.36C342.244 58.1467 342.898 58.04 343.644 58.04C345.031 58.04 346.218 58.36 347.204 59C348.218 59.64 348.924 60.52 349.324 61.64L345.484 66.44H342.964C342.938 65.48 342.804 64.8 342.564 64.4C342.324 63.9733 341.951 63.76 341.444 63.76V63.72ZM364.11 58.04C366.91 58.04 369.07 59.1067 370.59 61.24C372.137 63.3733 372.883 66.3333 372.83 70.12H358.43C358.697 71.7467 359.27 73.0533 360.15 74.04C361.03 75 362.177 75.48 363.59 75.48C365.457 75.48 368.137 74.5467 371.63 72.68L372.83 74.96L366.75 79.8C365.177 80.2 363.35 80.4 361.27 80.4C359.323 80.4 357.563 79.9467 355.99 79.04C354.443 78.1067 353.23 76.84 352.35 75.24C351.497 73.64 351.07 71.8667 351.07 69.92C351.07 67.8133 351.75 65.8533 353.11 64.04C354.47 62.2 356.163 60.7467 358.19 59.68C360.243 58.5867 362.217 58.04 364.11 58.04ZM361.91 62.68C360.737 62.68 359.857 63.08 359.27 63.88C358.683 64.6533 358.363 65.8533 358.31 67.48H365.95C365.737 65.8267 365.337 64.6133 364.75 63.84C364.19 63.0667 363.23 62.68 361.87 62.68H361.91ZM402.595 80H393.515V77.04L389.675 80.08C388.822 80.2933 387.835 80.4 386.715 80.4C384.955 80.4 383.369 79.9467 381.955 79.04C380.569 78.1067 379.475 76.84 378.675 75.24C377.902 73.64 377.515 71.8667 377.515 69.92C377.515 67.8133 378.195 65.8533 379.555 64.04C380.915 62.2 382.609 60.7467 384.635 59.68C386.689 58.5867 388.662 58.04 390.555 58.04C391.622 58.04 392.609 58.3067 393.515 58.84V52.88L389.955 50.52V48.28L397.795 45.08H400.315V76.2L403.915 77.4L402.595 80ZM389.155 75.04C390.729 75.04 392.182 74.6533 393.515 73.88V66.24C393.355 65.2 392.822 64.3467 391.915 63.68C391.009 63.0133 389.782 62.68 388.235 62.68C385.889 62.68 384.715 64.4667 384.715 68.04C384.715 70.0667 385.089 71.7467 385.835 73.08C386.609 74.3867 387.715 75.04 389.155 75.04ZM419.774 58.04C422.574 58.04 424.734 59.1067 426.254 61.24C427.801 63.3733 428.547 66.3333 428.494 70.12H414.094C414.361 71.7467 414.934 73.0533 415.814 74.04C416.694 75 417.841 75.48 419.254 75.48C421.121 75.48 423.801 74.5467 427.294 72.68L428.494 74.96L422.414 79.8C420.841 80.2 419.014 80.4 416.934 80.4C414.987 80.4 413.227 79.9467 411.654 79.04C410.107 78.1067 408.894 76.84 408.014 75.24C407.161 73.64 406.734 71.8667 406.734 69.92C406.734 67.8133 407.414 65.8533 408.774 64.04C410.134 62.2 411.827 60.7467 413.854 59.68C415.907 58.5867 417.881 58.04 419.774 58.04ZM417.574 62.68C416.401 62.68 415.521 63.08 414.934 63.88C414.347 64.6533 414.027 65.8533 413.974 67.48H421.614C421.401 65.8267 421.001 64.6133 420.414 63.84C419.854 63.0667 418.894 62.68 417.534 62.68H417.574ZM458.819 80H449.739V67.2C449.739 65.9467 449.539 65.0667 449.139 64.56C448.766 64.0267 448.099 63.76 447.139 63.76C445.726 63.76 444.326 64.2133 442.939 65.12V76.2L446.539 77.4L445.219 80H432.579V77.76L436.139 74.76V65.68L432.579 63.44V61.2L440.899 57.68L442.459 62.32L447.419 58.36C448.139 58.1467 448.953 58.04 449.859 58.04C451.886 58.04 453.499 58.6 454.699 59.72C455.926 60.8133 456.539 62.3067 456.539 64.2V76.2L460.139 77.4L458.819 80ZM475.825 80.08C474.918 80.2933 473.838 80.4 472.585 80.4C470.025 80.4 468.145 79.8267 466.945 78.68C465.772 77.5067 465.185 75.7067 465.185 73.28V62.28H460.865V60.16L469.465 50.8H471.985V59.64H479.185V62.28H471.985V73C471.985 74.84 473.025 75.76 475.105 75.76C475.638 75.76 476.158 75.68 476.665 75.52C477.198 75.3333 477.865 75.0267 478.665 74.6L479.865 76.88L475.825 80.08ZM494.712 80H482.072V77.76L485.632 74.76V65.48L482.072 63.12V60.88L489.912 57.68H492.432V76.2L496.032 77.4L494.712 80ZM488.992 45.64C490.138 45.64 491.072 46.0133 491.792 46.76C492.538 47.48 492.912 48.3867 492.912 49.48C492.912 50.2533 492.645 50.9733 492.112 51.64C491.578 52.3067 490.912 52.84 490.112 53.24C489.312 53.64 488.538 53.84 487.792 53.84C486.672 53.84 485.738 53.48 484.992 52.76C484.272 52.0133 483.912 51.0933 483.912 50C483.912 49.2267 484.178 48.5067 484.712 47.84C485.245 47.1733 485.898 46.64 486.672 46.24C487.472 45.84 488.245 45.64 488.992 45.64ZM521.48 80H512.36V76.52L507.84 80.08C507.306 80.2933 506.64 80.4 505.84 80.4C503.28 80.4 501.426 79.7733 500.28 78.52C499.16 77.2667 498.6 75.76 498.6 74C498.6 72.96 498.92 71.9467 499.56 70.96C500.2 69.9467 501.12 69.0133 502.32 68.16H512.36V67.48C512.36 66.0133 511.96 64.9333 511.16 64.24C510.36 63.5467 509.293 63.2 507.96 63.2C506.093 63.2 503.653 63.9333 500.64 65.4L499.44 63.12L505 58.64C506.36 58.24 507.946 58.04 509.76 58.04C512.746 58.04 515.053 58.72 516.68 60.08C518.333 61.44 519.16 63.4133 519.16 66V76L522.76 77.4L521.48 80ZM507.88 75.04C509.24 75.04 510.733 74.48 512.36 73.36V70.8H505.92C505.706 71.12 505.546 71.4267 505.44 71.72C505.36 71.9867 505.32 72.2933 505.32 72.64C505.32 73.3067 505.546 73.8667 506 74.32C506.48 74.7733 507.106 75 507.88 75V75.04ZM536.841 80H524.201V77.76L527.761 74.76V52.88L524.201 50.52V48.28L532.041 45.08H534.561V76.2L538.161 77.4L536.841 80Z" fill="#000F70"/>
    <path opacity="0.05" d="M407.137 103.89L275.771 159.996C267.56 163.502 262.986 172.269 264.804 180.918C266.622 189.568 274.246 195.88 283.16 195.88V200.555C283.16 208.328 289.435 214.582 297.235 214.582H531.817C539.617 214.582 545.892 208.328 545.892 200.555V195.88C554.806 195.88 562.488 189.627 564.248 180.918C566.007 172.21 561.433 163.444 553.281 159.996L421.915 103.89C417.224 101.903 411.828 101.903 407.137 103.89ZM339.46 233.284H301.927V348.008C301.575 348.183 301.223 348.417 300.871 348.65L272.721 367.352C265.86 371.911 262.751 380.444 265.156 388.333C267.56 396.223 274.891 401.6 283.16 401.6H545.892C554.161 401.6 561.433 396.223 563.837 388.333C566.242 380.444 563.192 371.911 556.272 367.352L528.122 348.65C527.77 348.417 527.418 348.241 527.067 348.008L527.125 233.284H489.592V345.495H466.134V233.284H428.601V345.495H400.451V233.284H362.918V345.495H339.46V233.284ZM414.526 139.774C419.503 139.774 424.276 141.745 427.796 145.252C431.315 148.759 433.292 153.516 433.292 158.476C433.292 163.436 431.315 168.193 427.796 171.7C424.276 175.208 419.503 177.178 414.526 177.178C409.549 177.178 404.775 175.208 401.256 171.7C397.737 168.193 395.759 163.436 395.759 158.476C395.759 153.516 397.737 148.759 401.256 145.252C404.775 141.745 409.549 139.774 414.526 139.774Z" fill="black"/>

    <defs>
        <radialGradient id="paint0_radial_7_28" cx="0" cy="0" r="1" gradientUnits="userSpaceOnUse" gradientTransform="rotate(31.298) scale(970.184 837.521)">
            <stop stop-color="#88C1E4"/>
            <stop offset="1" stop-color="#D7E4F1"/>
        </radialGradient>
    </defs>
</svg>
